<svg width="200" height="107" viewBox="0 0 200 107" fill="none" xmlns="http://www.w3.org/2000/svg">
<g id="Group">
<g id="Group_2">
<path id="Vector" d="M42.8441 50.6045C42.8441 56.2558 43.0055 60.7768 43.167 64.1676H30.5743L29.9285 58.92H29.6863C28.2333 61.0997 24.7622 65.0556 17.6587 65.0556C8.77919 65.0556 3.53223 59.3236 3.53223 47.8596V24.4473H18.143V45.5184C18.143 50.6045 19.7574 53.3494 23.2285 53.3494C25.8924 53.3494 27.3454 51.4926 27.9104 49.9587C28.1526 49.3935 28.2333 48.667 28.2333 47.8596V24.4473H42.8441V50.6045Z" fill="#2A9546"/>
<path id="Vector_2" d="M53.2467 38.0106C53.2467 32.6823 53.0853 28.1613 52.9238 24.4476H65.5165L66.1623 29.5338H66.4045C67.8575 27.4347 71.7322 23.5596 78.3514 23.5596C87.6345 23.5596 92.72 29.8567 92.72 40.7555V64.1679H78.1092V42.5317C78.1092 37.9299 76.5755 35.2658 73.0237 35.2658C70.1985 35.2658 68.9069 37.2033 68.2611 38.7372C67.9382 39.4638 67.8575 40.5941 67.8575 41.6436V64.1679H53.2467V38.0106Z" fill="#2A9546"/>
<path id="Vector_3" d="M102.973 64.1676V24.4473H117.583V64.1676H102.973Z" fill="#2A9546"/>
<path id="Vector_4" d="M143.898 13.1348V24.4373H152.132V35.0939H143.898V46.4772C143.898 51.1597 144.947 53.0972 148.499 53.0972C150.194 53.0972 150.759 53.0972 151.97 52.7743V63.8347C150.275 64.4805 147.046 64.9649 143.333 64.9649C139.054 64.9649 135.503 63.431 133.404 61.3319C130.982 58.91 129.691 55.0348 129.691 48.9799V35.0939H124.767V24.4373H129.691V17.0099L143.898 13.1348Z" fill="#2A9546"/>
<path id="Vector_5" d="M172.636 24.4375L177.398 42.2793C177.963 44.4591 178.609 47.3655 179.093 49.3838H179.416C179.901 47.2847 180.385 44.3784 180.869 42.3601L184.502 24.4375H200.001L191.525 49.7067C185.551 66.3376 181.677 72.3925 177.398 76.1869C172.797 80.2235 167.873 81.596 164.16 81.9996L161.173 69.7283C162.626 69.4861 164.402 69.0017 166.178 68.1944C168.034 67.4678 169.891 65.8532 170.86 64.5614C171.263 63.9963 171.586 63.3505 171.586 62.7853C171.586 62.3009 171.506 61.6551 171.021 60.6863L156.491 24.4375H172.636Z" fill="#2A9546"/>
<path id="Vector_6" d="M13.0871 100.85C12.1084 101.203 10.2114 101.678 8.27405 101.678C5.75147 101.678 3.78387 101.022 2.32077 99.609C0.837499 98.176 0 95.8549 0 93.1504C0.0302709 87.4487 3.75359 84.3203 8.69784 84.3203C10.5141 84.3203 11.9267 84.7038 12.6331 85.0267L12.0075 87.4689C11.2305 87.1157 10.2417 86.8432 8.72813 86.8432C5.5295 86.8432 3.128 88.8312 3.128 93.0495C3.128 97.2677 5.31759 99.2255 8.3245 99.2255C9.25281 99.2255 9.91878 99.1044 10.2417 98.943V94.5229H7.598V92.1513H13.0972V100.83L13.0871 100.85Z" fill="#234075"/>
<path id="Vector_7" d="M16.1439 93.0298C16.1439 91.5362 16.0934 90.3051 16.043 89.2152H18.616L18.7371 91.4151H18.838C19.3929 89.8207 20.7047 88.9629 21.9155 88.9629C22.2182 88.9629 22.3898 88.9932 22.5916 89.0133V91.8894C22.3696 91.839 22.1375 91.8087 21.7843 91.8087C20.4726 91.8087 19.4938 92.6968 19.1911 94.0793C19.1407 94.3619 19.1104 94.705 19.1104 95.0884V101.497H16.1338V93.0197L16.1439 93.0298Z" fill="#234075"/>
<path id="Vector_8" d="M33.4484 98.5997C33.4484 99.6593 33.4989 100.719 33.62 101.496H30.946L30.7442 100.164H30.6938C29.9874 101.123 28.7968 101.748 27.3639 101.748C25.0936 101.748 23.7314 100.063 23.7314 98.0951C23.7314 94.997 26.4558 93.5034 30.4617 93.5034V93.2713C30.4617 92.3126 30.0883 91.1017 28.1712 91.1017C27.0612 91.1017 25.9513 91.4549 25.1744 91.9594L24.5891 89.9916C25.4266 89.487 26.9099 88.9521 28.7261 88.9521C32.4091 88.9521 33.4383 91.3539 33.4383 94.0181V98.5896L33.4484 98.5997ZM30.5424 95.4511C28.706 95.4208 26.6576 95.8548 26.6576 97.7923C26.6576 99.0538 27.4346 99.5886 28.2923 99.5886C29.3518 99.5886 30.1892 98.9024 30.4617 97.974C30.5121 97.7722 30.5424 97.5401 30.5424 97.318V95.4511Z" fill="#234075"/>
<path id="Vector_9" d="M36.7288 92.8276C36.7288 91.4148 36.6784 90.3047 36.6279 89.2249H39.2211L39.3725 90.9405H39.4229C39.9779 89.9818 41.2392 88.9727 43.0555 88.9727C45.1542 88.9727 47.0411 90.4157 47.0411 93.9882V101.506H44.0645V94.3212C44.0645 92.7065 43.5398 91.4249 41.996 91.4249C40.9062 91.4249 40.1293 92.1818 39.8568 93.1405C39.7559 93.4129 39.7055 93.7964 39.7055 94.1698V101.506H36.7288V92.8276Z" fill="#234075"/>
<path id="Vector_10" d="M53.6507 86.0869V89.2153H56.4255V91.4152H53.6507V97.1371C53.6507 98.6206 54.1047 99.2766 55.1339 99.2766C55.6082 99.2766 55.8907 99.2463 56.2136 99.1554L56.2943 101.456C55.8403 101.608 55.0835 101.729 54.1754 101.729C53.1159 101.729 52.238 101.406 51.6831 100.8C51.0272 100.114 50.7245 99.0646 50.7245 97.3894V91.4152H49.0596V89.2153H50.7245V86.975L53.6507 86.0869Z" fill="#234075"/>
<path id="Vector_11" d="M77.161 94.6641C77.0601 92.5752 76.939 90.022 76.9592 87.8322H76.8784C76.4042 89.8505 75.7685 92.0706 75.1429 94.0889L72.8524 101.304H70.6326L68.564 94.2201C67.9586 92.1513 67.4036 89.911 67 87.8423H66.9496C66.8688 89.9817 66.778 92.555 66.6469 94.7751L66.2937 101.506H63.5693L64.6994 84.502H68.4026L70.4509 91.3339C71.0261 93.4027 71.5306 95.3403 71.9342 97.2577H71.9846C72.3883 95.3907 72.9129 93.4027 73.5184 91.3339L75.6575 84.502H79.3405L80.3192 101.506H77.4738L77.1408 94.6742L77.161 94.6641Z" fill="#234075"/>
<path id="Vector_12" d="M92.3762 98.5997C92.3762 99.6593 92.4266 100.719 92.5477 101.496H89.8737L89.672 100.164H89.6215C88.9152 101.123 87.7346 101.748 86.2917 101.748C84.0214 101.748 82.6592 100.063 82.6592 98.0951C82.6592 94.997 85.3836 93.5034 89.3894 93.5034V93.2713C89.3894 92.3126 89.006 91.1017 87.0989 91.1017C85.989 91.1017 84.879 91.4549 84.1021 91.9594L83.527 89.9916C84.3544 89.487 85.8477 88.9521 87.664 88.9521C91.3469 88.9521 92.3762 91.3539 92.3762 94.0181V98.5896V98.5997ZM89.4802 95.4511C87.6337 95.4208 85.5955 95.8548 85.5955 97.7923C85.5955 99.0538 86.3825 99.5886 87.2301 99.5886C88.2896 99.5886 89.117 98.9024 89.3995 97.974C89.4499 97.7722 89.4802 97.5401 89.4802 97.318V95.4511Z" fill="#234075"/>
<path id="Vector_13" d="M95.6556 92.8276C95.6556 91.4148 95.6051 90.3047 95.5547 89.2249H98.1479L98.2993 90.9405H98.3497C98.9047 89.9818 100.166 88.9727 101.982 88.9727C104.071 88.9727 105.968 90.4157 105.968 93.9882V101.506H102.991V94.3212C102.991 92.7065 102.456 91.4249 100.923 91.4249C99.8431 91.4249 99.056 92.1818 98.7836 93.1405C98.6827 93.4129 98.6323 93.7964 98.6323 94.1698V101.506H95.6556V92.8276Z" fill="#234075"/>
<path id="Vector_14" d="M118.158 98.5997C118.158 99.6593 118.209 100.719 118.33 101.496H115.656L115.454 100.164H115.404C114.697 101.123 113.517 101.748 112.074 101.748C109.804 101.748 108.441 100.063 108.441 98.0951C108.441 94.997 111.166 93.5034 115.172 93.5034V93.2713C115.172 92.3126 114.788 91.1017 112.881 91.1017C111.771 91.1017 110.661 91.4549 109.884 91.9594L109.309 89.9916C110.137 89.487 111.63 88.9521 113.446 88.9521C117.129 88.9521 118.158 91.3539 118.158 94.0181V98.5896V98.5997ZM115.262 95.4511C113.416 95.4208 111.378 95.8548 111.378 97.7923C111.378 99.0538 112.165 99.5886 113.012 99.5886C114.072 99.5886 114.899 98.9024 115.182 97.974C115.232 97.7722 115.262 97.5401 115.262 97.318V95.4511Z" fill="#234075"/>
<path id="Vector_15" d="M131.7 99.8113C131.7 102.486 131.195 104.151 130.015 105.261C128.884 106.3 127.27 106.694 125.605 106.694C124.172 106.694 122.709 106.391 121.751 105.836L122.376 103.545C123.082 103.969 124.243 104.373 125.575 104.373C127.462 104.373 128.753 103.313 128.753 100.77V99.7608H128.703C128.097 100.77 126.967 101.426 125.524 101.426C122.649 101.426 120.762 98.8324 120.762 95.4215C120.762 91.3142 123.183 88.9629 125.857 88.9629C127.492 88.9629 128.481 89.8005 129.036 90.7592H129.086L129.207 89.2152H131.801C131.75 90.1032 131.7 91.1628 131.7 92.8481V99.8113ZM128.723 93.9885C128.723 93.6857 128.693 93.383 128.622 93.1307C128.34 92.1215 127.583 91.3142 126.432 91.3142C124.848 91.3142 123.759 92.8784 123.759 95.3205C123.759 97.5911 124.737 99.1553 126.402 99.1553C127.391 99.1553 128.249 98.5498 128.572 97.47C128.673 97.137 128.723 96.7435 128.723 96.3802V93.9885Z" fill="#234075"/>
<path id="Vector_16" d="M137.198 96.1783C137.249 98.5498 138.833 99.4581 140.649 99.4581C141.941 99.4581 142.869 99.2361 143.696 98.9232L144.12 100.992C143.162 101.426 141.779 101.719 140.185 101.719C136.452 101.719 134.312 99.2966 134.312 95.5426C134.312 91.7885 136.331 88.9629 139.882 88.9629C143.434 88.9629 144.746 91.9601 144.746 94.8362C144.746 95.4416 144.695 95.8958 144.645 96.1682H137.178L137.198 96.1783ZM141.961 94.0894C141.991 92.6968 141.436 91.0619 139.691 91.0619C137.945 91.0619 137.289 92.7775 137.198 94.0894H141.961Z" fill="#234075"/>
<path id="Vector_17" d="M147.319 92.8276C147.319 91.4148 147.268 90.3047 147.218 89.2249H149.791L149.912 90.9203H149.993C150.578 89.9818 151.657 88.9727 153.474 88.9727C155.007 88.9727 156.148 89.78 156.652 91.0616H156.703C157.106 90.4359 157.591 89.9515 158.115 89.5983C158.771 89.1947 159.477 88.9727 160.386 88.9727C162.373 88.9727 164.169 90.3855 164.169 94.0386V101.506H161.243V94.523C161.243 92.6258 160.688 91.3946 159.306 91.3946C158.347 91.3946 157.641 92.0708 157.338 92.9588C157.258 93.2616 157.217 93.645 157.217 93.9982V101.516H154.291V94.1799C154.291 92.646 153.766 91.4047 152.404 91.4047C151.395 91.4047 150.669 92.1818 150.386 93.09C150.305 93.3726 150.265 93.746 150.265 94.0992V101.516H147.339V92.8377L147.319 92.8276Z" fill="#234075"/>
<path id="Vector_18" d="M169.669 96.1783C169.719 98.5498 171.304 99.4581 173.12 99.4581C174.401 99.4581 175.34 99.2361 176.167 98.9232L176.591 100.992C175.632 101.426 174.25 101.719 172.656 101.719C168.922 101.719 166.783 99.2966 166.783 95.5426C166.783 91.7885 168.801 88.9629 172.353 88.9629C175.905 88.9629 177.217 91.9601 177.217 94.8362C177.217 95.4416 177.166 95.8958 177.116 96.1682H169.649L169.669 96.1783ZM174.432 94.0894C174.462 92.6968 173.907 91.0619 172.161 91.0619C170.416 91.0619 169.76 92.7775 169.669 94.0894H174.432Z" fill="#234075"/>
<path id="Vector_19" d="M179.779 92.8276C179.779 91.4148 179.728 90.3047 179.678 89.2249H182.271L182.422 90.9405H182.473C183.028 89.9818 184.289 88.9727 186.105 88.9727C188.204 88.9727 190.091 90.4157 190.091 93.9882V101.506H187.114V94.3212C187.114 92.7065 186.59 91.4249 185.046 91.4249C183.966 91.4249 183.179 92.1818 182.907 93.1405C182.806 93.4129 182.755 93.7964 182.755 94.1698V101.506H179.779V92.8276Z" fill="#234075"/>
<path id="Vector_20" d="M196.71 86.0869V89.2153H199.485V91.4152H196.71V97.1371C196.71 98.6206 197.164 99.2766 198.193 99.2766C198.668 99.2766 198.95 99.2463 199.273 99.1554L199.354 101.456C198.9 101.608 198.143 101.729 197.235 101.729C196.175 101.729 195.298 101.406 194.743 100.8C194.087 100.114 193.784 99.0646 193.784 97.3894V91.4152H192.119V89.2153H193.784V86.975L196.71 86.0869Z" fill="#234075"/>
</g>
<g id="Group_3">
<path id="Vector_21" d="M120.467 10.2382C120.467 8.64371 120.094 7.05934 119.378 5.63643C118.661 4.21353 117.672 3.03281 116.441 2.08421C115.21 1.13561 113.717 0.459473 112.173 0.156727C110.317 -0.206568 108.43 0.126452 106.866 1.21634C105.584 2.10439 104.626 3.45666 104.373 5.00066C104.323 5.28323 104.303 5.57588 104.303 5.86854C104.303 7.37218 104.969 8.81526 106.139 9.91524C106.099 9.87487 106.18 9.55195 106.2 9.50149C106.23 9.36021 106.26 9.21892 106.301 9.08774C106.381 8.81526 106.492 8.55288 106.634 8.31069C106.906 7.82629 107.269 7.39236 107.713 7.04924C108.389 6.52448 109.227 6.23183 110.084 6.22174C110.781 6.22174 111.477 6.37311 112.133 6.57494C112.678 6.73641 113.202 6.93824 113.707 7.18044C114.676 7.65474 115.574 8.3006 116.32 9.07765C117.067 9.85469 117.632 10.7125 118.036 11.6813C118.439 12.65 118.631 13.6188 118.631 14.628C118.631 15.2335 118.56 15.8188 118.429 16.394C119.751 14.628 120.467 12.4886 120.467 10.2483V10.2382Z" fill="#2A9546"/>
<path id="Vector_22" d="M99.8838 10.2382C99.8838 12.4886 100.63 14.6987 102.003 16.4748C103.375 18.2509 105.474 19.694 107.734 20.2288C109.046 20.5417 110.358 20.5517 111.639 20.138C112.658 19.805 113.607 19.26 114.373 18.5032C115.413 17.4738 116.059 16.0812 116.059 14.6179C116.059 13.1143 115.393 11.6813 114.212 10.5914C114.293 10.662 114.101 11.2574 114.071 11.3584C114 11.6106 113.899 11.8629 113.778 12.095C113.536 12.5592 113.203 12.973 112.799 13.3161C110.812 14.9812 107.936 14.184 105.928 12.9831C105.04 12.4482 104.233 11.762 103.577 10.9648C102.406 9.53178 101.72 7.7254 101.72 5.86856C101.72 5.27316 101.791 4.67776 101.922 4.10254C100.6 5.86856 99.8838 8.00796 99.8838 10.2483V10.2382Z" fill="#234075"/>
</g>
</g>
</svg>
