<svg id="Program" xmlns="http://www.w3.org/2000/svg" viewBox="0 0 436.66 182.06"><defs><style>.cls-1{fill:#e3a82b}.cls-1,.cls-4,.cls-5{stroke-width:0}.cls-4{fill:#2a9546}.cls-5{fill:#234075}</style></defs><path style="fill:none;stroke-width:0" d="M0 0h436.66v182.06H0z"/><path id="Ruled_Line" data-name="Ruled Line" class="cls-1" d="M181.73 37.42h1.13v106.85h-1.13z"/><g id="BC_ID" data-name="BC ID"><g id="British_Columbia" data-name="British Columbia"><path id="A" class="cls-5" d="m162.44 143.76-.08-.07c-.13-.01-.24-.03-.34-.05-.97-.22-1.35-1.39-1.71-2.22l-5-11.85c-.05-.14-.15-.45-.35-.45-.27 0-.35.33-.42.52l-4.78 11.82c-.17.45-.62 1.53-.94 1.86-.25.25-.57.3-.91.34 0 0-.27.03-.4.04l-.59.06c-.15.14-.1.49.05.56l.92-.03c.65 0 1.31-.09 1.96-.09.55 0 1.1.06 1.65.08l.92.03c.15-.07.2-.43.05-.56l-.62-.07-.34-.03c-.57-.06-1.29-.17-1.29-.8 0-.43.2-.92.35-1.3l.74-1.77c.37-.85.22-.94 1.21-.94h3.37c1.19 0 1.02 0 1.54 1.2l.79 1.79c.12.31.35.83.35 1.16 0 .59-.65.63-1.25.68 0 0-.2.02-.37.03l-.6.04c-.15.13-.1.49.05.56.33-.01.93-.04.93-.04.7-.03 1.41-.08 2.1-.08.87 0 1.74.06 2.6.08.28 0 .04.02.37.03.15-.07.2-.43.05-.56zm-6.56-5.57h-2.92c-.1 0-.91.1-.91-.14 0-.07.05-.21.08-.29l1.75-4.34c.05-.12.23-.71.43-.71.15 0 .36.62.41.71l1.73 4.05s.18.43.18.52c0 .26-.58.19-.74.19z"/><path id="I" class="cls-5" d="M141.29 132.84c0-2.38-.05-2.77-1.48-2.88l-.61-.05c-.15-.09-.1-.49.05-.56 1.21.04 2.04.07 3.06.07s1.8-.02 3.01-.07c.15.07.19.47.05.56l-.61.05c-1.43.11-1.48.49-1.48 2.88v8.01c0 2.38.05 2.7 1.48 2.86l.61.07c.15.09.1.49-.05.56-1.21-.04-2.04-.07-3.01-.07-1.02 0-1.85.02-3.06.07-.15-.07-.19-.43-.05-.56l.61-.07c1.43-.16 1.48-.47 1.48-2.86v-8.01z"/><path id="B" class="cls-5" d="M126.56 132.2c0-1.68-.11-2.11-1.29-2.2l-.84-.08c-.1-.09-.15-.54.03-.55 1.42-.11 3.22-.18 5.67-.18 1.66 0 3.24.11 4.43.64 1.13.48 2 1.39 2 2.84 0 1.64-1.11 2.48-2.69 3.11 0 .23.21.29.5.34 1.42.23 3.53 1.36 3.53 3.79 0 2.63-2.27 4.41-7.01 4.41-.76 0-2.05-.07-3.16-.07s-2.05.05-3.03.07c-.16-.07-.21-.43-.05-.57l.48-.07c1.4-.21 1.45-.45 1.45-2.84v-8.63zm2.16 3.02c0 .64.03.68 1.37.64 2.69-.09 4.14-.77 4.14-2.91s-1.92-3.07-3.93-3.07c-.58 0-.97.05-1.21.14-.26.07-.37.18-.37.59v4.61zm0 5.27c0 .82.05 1.98.55 2.48.5.52 1.29.64 2.08.64 2.34 0 4.14-.91 4.14-3.18 0-1.79-1.05-3.88-5.24-3.88-1.42 0-1.53.14-1.53.59v3.36z"/><path id="M" class="cls-5" d="m121.88 143.7-.36-.03c-.26-.03-.49-.06-.67-.26-.31-.33-.29-1.29-.29-1.67v-9.86c0-.43-.1-1.36.21-1.69.16-.18.49-.21.78-.22l.34-.02.62-.04c.15-.09.1-.5-.05-.56-.33.01-.64 0-.92.02h-2.65c-.29 0-.55 0-.71.31l-5.41 11.26-4.78-10.88c-.16-.38-.18-.69-.68-.69h-2.76c-.29 0-.61 0-.94-.02-.15.07-.2.47-.05.56l.62.04.36.03c1.04.07 1.1.3 1.01 1.39l-.81 10.57c-.07 1.06-.13 1.62-1.24 1.72 0 0-.24.03-.36.04l-.62.07c-.15.13-.1.49.05.56l.91-.03c.56-.03 1.14-.08 1.71-.08.62 0 1.24.06 1.86.08.29 0 .59.02.92.03.15-.07.2-.43.05-.56l-.62-.07c-.16-.01-.35-.03-.35-.03-1.6-.11-1.57-1.24-1.47-2.63l.76-9.83h.18l5.17 12.1c.05.17.13.45.39.45.24 0 .31-.26.39-.43l5.83-12.41h.18v10.81c0 .43.05 1.31-.39 1.65-.23.17-.99.28-.99.28-.1.02-.21.03-.34.05l-.62.07c-.15.14-.1.49.05.56l.91-.03c.85-.02 1.71-.09 2.57-.09.62 0 1.83.06 1.83.06.29 0 .62.04.95.05.15-.07.2-.43.05-.56l-.62-.07z"/><path id="U" class="cls-5" d="M98.85 135.01c0-1.39-.05-3.98-.45-4.66-.17-.27-.6-.43-1.19-.47l-.6-.04c-.14-.16-.1-.45.05-.54.91.04 1.79.07 2.72.07 1 0 1.65-.02 2.5-.07.19.11.17.4.05.54l-.57.04c-.6.05-1.05.25-1.19.54-.33.74-.33 3.33-.33 4.59v2.54c0 1.96-.33 4.03-1.67 5.38-1.02 1.06-2.79 1.64-4.55 1.64-1.65 0-3.29-.29-4.46-1.24-1.26-.99-1.86-2.63-1.86-5.31v-5.31c0-2.34-.05-2.72-1.43-2.83l-.6-.04c-.14-.09-.1-.47.05-.54 1.19.04 2 .07 2.96.07s1.76-.02 2.93-.07c.14.07.19.45.05.54l-.57.04c-1.38.11-1.43.5-1.43 2.83v4.86c0 3.62 1.19 6.01 4.84 6.01 3.46 0 4.77-2.56 4.77-5.98v-2.59z"/><path id="L" class="cls-5" d="M75.01 132.8c0-2.36-.05-2.72-1.61-2.83l-.62-.05c-.15-.09-.1-.49.05-.56 1.39.04 2.23.07 3.22.07s1.81-.02 3.04-.07c.15.07.2.47.05.56l-.59.05c-1.46.11-1.51.47-1.51 2.83v7.83c0 1.42.07 2 .52 2.43.27.25.74.52 2.7.52 2.1 0 2.62-.09 3.02-.29.49-.27 1.14-1.08 1.63-2.23.15-.11.62-.02.62.13 0 .25-.69 2.54-1.04 3.15-1.26-.04-3.61-.07-6.16-.07h-2.28c-1.04 0-1.83.02-3.22.07-.15-.07-.2-.43-.05-.56l.74-.07c1.43-.14 1.48-.45 1.48-2.81v-8.1z"/><path id="O" class="cls-5" d="M55.61 136.95c0-4.5 3.54-7.94 8.41-7.94 5.45 0 8.19 3.76 8.19 7.71 0 4.54-3.64 7.85-8.19 7.85-5.24 0-8.41-3.58-8.41-7.62zm14.24.47c0-3.71-1.72-7.71-6.23-7.71-2.46 0-5.64 1.6-5.64 6.52 0 3.33 1.7 7.65 6.35 7.65 2.83 0 5.53-2.02 5.53-6.46z"/><path id="C" class="cls-5" d="M40.71 128.16c1.99-1.55 4.52-2.31 7.36-2.31 1.47 0 3.54.3 4.82.65.33.08.52.14.76.11.03.62.16 2.33.38 3.99-.14.19-.54.22-.74.05-.41-1.85-1.63-3.96-5.59-3.96-4.17 0-7.71 2.63-7.71 8.25s3.62 8.85 8.09 8.85c3.52 0 5.07-2.28 5.69-3.88.19-.13.6-.08.71.11-.19 1.41-.9 3.2-1.31 3.72-.33.05-.65.16-.95.27-.6.22-2.56.63-4.31.63-2.45 0-4.8-.49-6.79-1.82-2.18-1.49-3.87-3.96-3.87-7.47 0-3.01 1.36-5.59 3.43-7.2z"/><path id="H" class="cls-5" d="M135.85 115.89c-1.16 0-1.21.05-1.21.72v3.17c0 2.36.12 2.68 1.48 2.81l.7.07c.14.09.1.49-.05.56-1.31-.04-2.13-.07-3.07-.07-1.04 0-1.86.05-2.81.07-.15-.07-.19-.43-.05-.56l.41-.07c1.36-.23 1.4-.45 1.4-2.81v-8.1c0-2.36-.17-2.74-1.43-2.83l-.63-.04c-.14-.09-.1-.5.05-.56 1.19.02 2.01.07 3.05.07.94 0 1.77-.02 2.81-.07.15.07.19.47.05.56l-.46.04c-1.4.13-1.45.47-1.45 2.83v2.59c0 .7.05.72 1.21.72h6.92c1.16 0 1.21-.02 1.21-.72v-2.59c0-2.36-.05-2.7-1.48-2.83l-.46-.04c-.15-.09-.1-.5.05-.56 1.11.04 1.94.07 2.93.07s1.77-.02 2.85-.07c.15.07.19.47.05.56l-.51.04c-1.4.13-1.45.47-1.45 2.83v8.1c0 2.36.05 2.65 1.45 2.81l.58.07c.14.09.1.49-.05.56-1.16-.04-1.98-.07-2.93-.07-.99 0-1.86.02-2.93.07-.15-.07-.19-.43-.05-.56l.46-.07c1.48-.23 1.48-.45 1.48-2.81v-3.17c0-.67-.05-.72-1.21-.72h-6.92z"/><path id="S" class="cls-5" d="M122.5 123.45c-2.23 0-3.64-.58-4.14-.83-.32-.5-.66-2.09-.72-3.15.13-.16.53-.2.64-.07.4 1.15 1.48 3.35 4.56 3.35 2.23 0 3.32-1.24 3.32-2.59 0-.99-.24-2.09-2.18-3.15l-2.52-1.39c-1.33-.74-2.87-2.02-2.87-3.87 0-2.14 1.97-3.87 5.41-3.87.82 0 1.78.14 2.47.29.35.09.72.13.93.13.24.54.48 1.8.48 2.74-.11.14-.53.2-.66.07-.35-1.08-1.06-2.54-3.61-2.54s-3.16 1.46-3.16 2.5c0 1.3 1.27 2.25 2.26 2.77l2.12 1.12c1.67.88 3.32 2.18 3.32 4.32 0 2.47-2.2 4.16-5.65 4.16z"/><path id="I-2" data-name="I" class="cls-5" d="M111.31 111.73c0-2.38-.05-2.77-1.52-2.88l-.62-.04c-.15-.09-.1-.5.05-.56 1.25.04 2.1.07 3.15.07s1.85-.02 3.1-.07c.15.07.2.47.05.56l-.63.04c-1.47.11-1.52.49-1.52 2.88v8.01c0 2.38.05 2.7 1.52 2.86l.63.07c.15.09.1.49-.05.56-1.25-.04-2.1-.07-3.1-.07-1.05 0-1.9.02-3.15.07-.15-.07-.2-.43-.05-.56l.62-.07c1.47-.16 1.52-.47 1.52-2.86v-8.01z"/><path id="T" class="cls-5" d="M101.29 119.78c0 2.36.05 2.7 1.4 2.81l.75.07c.14.09.09.49-.05.56-1.33-.04-2.13-.07-3.06-.07s-1.75.02-3.25.07c-.14-.07-.19-.45 0-.56l.84-.07c1.33-.11 1.45-.45 1.45-2.81v-10.05c0-.7 0-.72-.7-.72h-1.29c-1.01 0-2.29.04-2.88.56-.56.49-.79.99-1.05 1.55-.19.13-.51.02-.61-.16.37-1.01.73-2.45.89-3.35.07-.04.37-.07.45 0 .14.72.91.7 1.99.7h9.47c1.26 0 1.47-.05 1.82-.63.12-.04.37-.02.42.07-.26.92-.42 2.74-.35 3.42-.09.18-.49.18-.61.04-.07-.56-.23-1.39-.59-1.64-.54-.38-1.43-.56-2.71-.56h-1.66c-.7 0-.68.02-.68.76v10.01z"/><path id="I-3" data-name="I" class="cls-5" d="M87.44 111.73c0-2.38-.05-2.77-1.52-2.88l-.62-.04c-.15-.09-.1-.5.05-.56 1.25.04 2.1.07 3.15.07s1.85-.02 3.1-.07c.15.07.2.47.05.56l-.62.04c-1.47.11-1.52.49-1.52 2.88v8.01c0 2.38.05 2.7 1.52 2.86l.62.07c.15.09.1.49-.05.56-1.25-.04-2.1-.07-3.1-.07-1.05 0-1.9.02-3.15.07-.15-.07-.2-.43-.05-.56l.62-.07c1.47-.16 1.52-.47 1.52-2.86v-8.01z"/><path id="R" class="cls-5" d="m83.62 122.66-.62-.05c-.13-.01-.24-.03-.34-.05-.91-.16-1.28-.98-1.71-1.73l-2.16-3.76c-.37-.63-.77-1.47-1.63-1.59 2.21-.27 4.21-1.54 4.21-3.73 0-2.53-2.51-3.66-5.04-3.66-1.52 0-2.9.04-4.45.04-.85 0-1.87-.04-2.72-.04-.47 0-.48.1-.48.36 0 .39.16.28.67.31 1.8.1 1.73.44 1.73 1.98v9.86c0 1.41.12 1.83-1.36 1.96 0 0-.23.02-.36.04l-.63.06c-.15.13-.1.49.05.56.33-.01.92-.04.92-.04.82-.02 1.64-.09 2.46-.09s1.61.06 2.42.09l.92.03c.15-.07.2-.43.05-.56l-.63-.06c-.13-.01-.35-.03-.35-.03-1.5-.1-1.4-.52-1.4-1.97v-3.71c0-.22-.03-.8.13-.96.13-.15.37-.12.59-.12 2.03 0 2 .19 2.96 1.88l2.61 4.7c.21.36.37.82.91.82h2.27c.29 0 .59.02.92.03.15-.07.2-.43.05-.56zm-9.1-7.39c-.45 0-1.36.17-1.36-.43v-4.31c0-1.69.05-1.93 2.08-1.93 2.37 0 3.84 1.2 3.84 3.42 0 .96-.35 1.86-1.23 2.46-1.01.7-2.11.79-3.33.79z"/><path id="B-2" data-name="B" class="cls-5" d="M54.56 109.14c0-1.95-.14-2.47-1.45-2.57l-.91-.06c-.15-.12-.11-.65.03-.66 1.58-.14 3.56-.21 6.28-.21 1.84 0 3.59.13 4.91.74 1.26.55 2.22 1.61 2.22 3.29 0 1.9-1.23 2.87-2.98 3.61 0 .26.23.34.56.39 1.58.26 3.92 1.58 3.92 4.4 0 3.06-2.51 5.11-7.77 5.11-.85 0-2.28-.08-3.51-.08s-2.28.05-3.36.08c-.17-.08-.23-.5-.06-.66l.53-.08c1.55-.24 1.61-.53 1.61-3.29v-10zm2.4 3.5c0 .74.03.79 1.52.74 2.98-.1 4.59-.89 4.59-3.37s-2.13-3.55-4.35-3.55c-.64 0-1.08.05-1.34.16-.29.08-.41.21-.41.68v5.34zm0 6.11c0 .95.06 2.29.61 2.87.56.61 1.43.74 2.31.74 2.6 0 4.59-1.05 4.59-3.69 0-2.08-1.17-4.5-5.82-4.5-1.58 0-1.7.16-1.7.68v3.9z"/></g><path id="White_Symbol_Bkgd" data-name="White Symbol Bkgd" d="M64.89 92.49c15.81 0 37.68 8.9 53.55 8.9 11.32 0 22.37-3.02 28.66-7.47.44-2.61.67-5.3.67-8.03 0-26.57-21.54-48.11-48.11-48.11S51.55 59.32 51.55 85.89c0 2.71.23 5.36.66 7.94 1.73-.32 7.63-1.34 12.68-1.34z" style="fill:#fff;stroke-width:0"/><g id="Gold_Sunrays" data-name="Gold Sunrays"><path class="cls-1" d="m130.75 74.76 1.9.79 4.22-2.94-6.12 2.15z"/><path class="cls-1" d="m59.86 71.48-5-1.76.25-.61 5.63 1.88h.02l.74-.44.3-.19-6.14-2.61.26-.64 13.71 5.54.45-.19-13.59-6.62.3-.62 14.4 6.7.2-.1-13.97-7.92.29-.59 20.17 10.97c.16-.31.51-.86.69-1.16C70.9 65.91 63.5 60.5 63.5 60.5s7.61 5.1 17 9.83c.31-.39.56-.7.9-1.07L64.19 54.11l.46-.47 13.89 11.84L65.67 52.6l.48-.5 14.44 13.96-13.45-14.92.51-.46 12.43 13.31L68.74 49.7l.49-.44 14.54 17.69c.38-.32.69-.57 1.08-.87-4.4-9.52-9.2-17.26-9.2-17.26s5.11 7.52 12.01 15.41c.42-.24.85-.46 1.29-.68l-.07-.05-10.19-20.34.61-.27 8.44 16.18-7.1-16.77.63-.28 8.16 18.35-6.88-18.87.65-.24 6.54 17-5.16-17.5.62-.23L92 62.24v.06c.45-.15.91-.29 1.37-.41-.52-10.43-2.06-19.34-2.06-19.34s1.91 8.84 5.33 18.7c.48-.06.96-.11 1.44-.14l-.02-.02h.06l-.03-.05-1.83-22.67.66-.02 1.77 18.16-.3-18.21.69-.02.69 20.08.69-20.08.69.02-.3 18.21 1.77-18.16.66.02-1.83 22.67-.03.05h.04c.47.03.94.08 1.41.13 3.42-9.85 5.33-18.67 5.33-18.67s-1.54 8.89-2.06 19.3c.47.12.93.26 1.38.41l6.77-21.63.62.23-5.16 17.5 6.54-16.99.65.24-6.88 18.87 8.16-18.36.63.28-7.1 16.77 8.44-16.18.61.27-10.15 20.26h.02c.42.21.83.43 1.23.65 6.87-7.86 11.95-15.34 11.95-15.34s-4.77 7.69-9.16 17.16c.39.3.77.6 1.15.92l14.37-17.5.49.44-11.35 14.29 12.43-13.31.51.46-13.45 14.92 14.45-13.96.48.5-12.87 12.88 13.89-11.83.46.47-17 14.98c.3.34.58.68.86 1.03 9.33-4.72 16.87-9.77 16.87-9.77s-7.33 5.36-14.96 12.52c.21.35.55.94.74 1.3l19.88-10.83.29.6-15.87 9 16.51-7.68.3.62-15.38 7.49.29.1 15.65-6.33.26.64-14.54 6.19.27.11 9.69-3.23 1.46-1.02.49.37 3.19-1.06.25.61-2.76.97 3.99 3.04 1.28.71c-5.12-21.42-24.4-37.35-47.39-37.35S56.68 53.77 51.97 75.77l.18-.09.58-.26.36-.17 6.72-3.77z"/></g><path id="Blue_Mountains_Water" data-name="Blue Mountains Water" class="cls-5" d="M51.74 94.87s7.19-1.44 13.19-1.44c15.81 0 37.68 8.9 53.55 8.9 11.64 0 22.99-3.19 29.18-7.85.48-2.75.74-5.59.74-8.48 0-3.92-.47-7.73-1.34-11.38l-6.62-3.69-7.76 5.44-5.22-2.03c-1.77.89-12.67 8.19-12.67 8.19l-4.19-3.03-4.49-.89-5.99-4.36-6.87 4.72s-7.66 4.45-7.93 4.45-9.25-7.12-9.25-7.12l-4.14-4.36c-.7.44-3.52 1.74-3.52 1.74l-.14.04-2.72-.84-3.31-1.75-10.05 4.56-.18.09a48.67 48.67 0 0 0-1.08 10.24c0 3.03.28 5.99.81 8.86z"/></g><g><path class="cls-4" d="M243.63 93.87c0 5.6.16 10.08.32 13.44h-12.48l-.64-5.2h-.24c-1.44 2.16-4.88 6.08-11.92 6.08-8.8 0-14-5.68-14-17.04v-23.2h14.48v20.88c0 5.04 1.6 7.76 5.04 7.76 2.64 0 4.08-1.84 4.64-3.36.24-.56.32-1.28.32-2.08v-23.2h14.48v25.92zM253.94 81.39c0-5.28-.16-9.76-.32-13.44h12.48l.64 5.04h.24c1.44-2.08 5.28-5.92 11.84-5.92 9.2 0 14.24 6.24 14.24 17.04v23.2h-14.48V85.87c0-4.56-1.52-7.2-5.04-7.2-2.8 0-4.08 1.92-4.72 3.44-.32.72-.4 1.84-.4 2.88v22.32h-14.48V81.39zM303.22 107.31V67.95h14.48v39.36h-14.48zM343.78 56.74v11.2h8.16V78.5h-8.16v11.28c0 4.64 1.04 6.56 4.56 6.56 1.68 0 2.24 0 3.44-.32v10.96c-1.68.64-4.88 1.12-8.56 1.12-4.24 0-7.76-1.52-9.84-3.6-2.4-2.4-3.68-6.24-3.68-12.24V78.5h-4.88V67.94h4.88v-7.36l14.08-3.84zM372.26 67.94l4.72 17.68c.56 2.16 1.2 5.04 1.68 7.04h.32c.48-2.08.96-4.96 1.44-6.96l3.6-17.76h15.36l-8.4 25.04c-5.92 16.48-9.76 22.48-14 26.24-4.56 4-9.44 5.36-13.12 5.76l-2.96-12.16a20.3 20.3 0 0 0 4.96-1.52c1.84-.72 3.68-2.32 4.64-3.6.4-.56.72-1.2.72-1.76 0-.48-.08-1.12-.56-2.08l-14.4-35.92h16z"/><path class="cls-5" d="M214.14 143.66c-.97.35-2.85.82-4.77.82-2.5 0-4.45-.65-5.9-2.05-1.47-1.42-2.3-3.72-2.3-6.4.03-5.65 3.72-8.75 8.62-8.75 1.8 0 3.2.38 3.9.7l-.62 2.42c-.77-.35-1.75-.62-3.25-.62-3.17 0-5.55 1.97-5.55 6.15s2.17 6.12 5.15 6.12c.92 0 1.58-.12 1.9-.28v-4.38h-2.62v-2.35h5.45v8.6zM217.17 135.91c0-1.48-.05-2.7-.1-3.78h2.55l.12 2.18h.1c.55-1.58 1.85-2.43 3.05-2.43.3 0 .47.03.67.05v2.85c-.22-.05-.45-.08-.8-.08-1.3 0-2.27.88-2.57 2.25-.05.28-.08.62-.08 1v6.35h-2.95v-8.4zM234.32 141.43c0 1.05.05 2.1.17 2.87h-2.65l-.2-1.32h-.05c-.7.95-1.88 1.57-3.3 1.57-2.25 0-3.6-1.67-3.6-3.62 0-3.07 2.7-4.55 6.67-4.55v-.23c0-.95-.37-2.15-2.27-2.15-1.1 0-2.2.35-2.97.85l-.58-1.95c.83-.5 2.3-1.03 4.1-1.03 3.65 0 4.67 2.38 4.67 5.02v4.53zm-2.88-3.12c-1.82-.03-3.85.4-3.85 2.32 0 1.25.77 1.78 1.62 1.78 1.05 0 1.88-.68 2.15-1.6.05-.2.08-.43.08-.65v-1.85zM237.57 135.71c0-1.4-.05-2.5-.1-3.57h2.57l.15 1.7h.05c.55-.95 1.8-1.95 3.6-1.95 2.08 0 3.95 1.43 3.95 4.97v7.45h-2.95v-7.12c0-1.6-.52-2.87-2.05-2.87-1.08 0-1.85.75-2.12 1.7-.1.27-.15.65-.15 1.02v7.27h-2.95v-8.6zM254.34 129.03v3.1h2.75v2.18h-2.75v5.67c0 1.47.45 2.12 1.47 2.12.47 0 .75-.03 1.07-.12l.08 2.28c-.45.15-1.2.27-2.1.27-1.05 0-1.92-.32-2.47-.92-.65-.68-.95-1.72-.95-3.38v-5.92h-1.65v-2.18h1.65v-2.22l2.9-.88zM277.64 137.53c-.1-2.07-.22-4.6-.2-6.77h-.08c-.47 2-1.1 4.2-1.72 6.2l-2.27 7.15h-2.2l-2.05-7.02a72.7 72.7 0 0 1-1.55-6.32h-.05c-.08 2.12-.17 4.67-.3 6.87l-.35 6.67h-2.7l1.12-16.85h3.67l2.03 6.77c.57 2.05 1.07 3.97 1.47 5.87h.05c.4-1.85.92-3.82 1.52-5.87l2.12-6.77h3.65l.97 16.85h-2.82l-.33-6.77zM292.72 141.43c0 1.05.05 2.1.17 2.87h-2.65l-.2-1.32h-.05c-.7.95-1.87 1.57-3.3 1.57-2.25 0-3.6-1.67-3.6-3.62 0-3.07 2.7-4.55 6.67-4.55v-.23c0-.95-.38-2.15-2.27-2.15-1.1 0-2.2.35-2.97.85l-.57-1.95c.82-.5 2.3-1.03 4.1-1.03 3.65 0 4.67 2.38 4.67 5.02v4.53zm-2.87-3.12c-1.83-.03-3.85.4-3.85 2.32 0 1.25.78 1.78 1.62 1.78 1.05 0 1.87-.68 2.15-1.6.05-.2.08-.43.08-.65v-1.85zM295.97 135.71c0-1.4-.05-2.5-.1-3.57h2.57l.15 1.7h.05c.55-.95 1.8-1.95 3.6-1.95 2.07 0 3.95 1.43 3.95 4.97v7.45h-2.95v-7.12c0-1.6-.53-2.87-2.05-2.87-1.07 0-1.85.75-2.12 1.7-.1.27-.15.65-.15 1.02v7.27h-2.95v-8.6zM318.27 141.43c0 1.05.05 2.1.17 2.87h-2.65l-.2-1.32h-.05c-.7.95-1.87 1.57-3.3 1.57-2.25 0-3.6-1.67-3.6-3.62 0-3.07 2.7-4.55 6.67-4.55v-.23c0-.95-.38-2.15-2.27-2.15-1.1 0-2.2.35-2.97.85l-.57-1.95c.82-.5 2.3-1.03 4.1-1.03 3.65 0 4.67 2.38 4.67 5.02v4.53zm-2.87-3.12c-1.83-.03-3.85.4-3.85 2.32 0 1.25.78 1.78 1.62 1.78 1.05 0 1.87-.68 2.15-1.6.05-.2.08-.43.08-.65v-1.85zM331.69 142.63c0 2.65-.5 4.3-1.67 5.4-1.12 1.03-2.72 1.42-4.37 1.42-1.42 0-2.87-.3-3.82-.85l.62-2.27c.7.42 1.85.82 3.17.82 1.87 0 3.15-1.05 3.15-3.57v-1h-.05c-.6 1-1.72 1.65-3.15 1.65-2.85 0-4.72-2.57-4.72-5.95 0-4.07 2.4-6.4 5.05-6.4 1.62 0 2.6.83 3.15 1.78h.05l.12-1.53h2.57c-.05.88-.1 1.93-.1 3.6v6.9zm-2.95-5.77c0-.3-.03-.6-.1-.85-.28-1-1.03-1.8-2.17-1.8-1.57 0-2.65 1.55-2.65 3.97 0 2.25.97 3.8 2.62 3.8.98 0 1.83-.6 2.15-1.67.1-.33.15-.72.15-1.08v-2.37zM337.14 139.03c.05 2.35 1.62 3.25 3.42 3.25 1.28 0 2.2-.22 3.02-.53l.42 2.05c-.95.43-2.32.72-3.9.72-3.7 0-5.82-2.4-5.82-6.12s2-6.52 5.52-6.52 4.82 2.97 4.82 5.82c0 .6-.05 1.05-.1 1.32h-7.4zm4.72-2.07c.03-1.38-.52-3-2.25-3s-2.38 1.7-2.47 3h4.72zM347.17 135.71c0-1.4-.05-2.5-.1-3.57h2.55l.12 1.68h.08c.58-.93 1.65-1.93 3.45-1.93 1.52 0 2.65.8 3.15 2.07h.05c.4-.62.88-1.1 1.4-1.45.65-.4 1.35-.62 2.25-.62 1.97 0 3.75 1.4 3.75 5.02v7.4h-2.9v-6.92c0-1.88-.55-3.1-1.92-3.1-.95 0-1.65.67-1.95 1.55-.08.3-.12.68-.12 1.03v7.45h-2.9v-7.27c0-1.52-.52-2.75-1.87-2.75-1 0-1.72.77-2 1.67-.08.28-.12.65-.12 1v7.35h-2.9v-8.6zM369.32 139.03c.05 2.35 1.62 3.25 3.42 3.25 1.27 0 2.2-.22 3.02-.53l.42 2.05c-.95.43-2.32.72-3.9.72-3.7 0-5.82-2.4-5.82-6.12s2-6.52 5.52-6.52 4.82 2.97 4.82 5.82c0 .6-.05 1.05-.1 1.32h-7.4zm4.72-2.07c.03-1.38-.52-3-2.25-3s-2.38 1.7-2.47 3h4.72zM379.34 135.71c0-1.4-.05-2.5-.1-3.57h2.57l.15 1.7h.05c.55-.95 1.8-1.95 3.6-1.95 2.08 0 3.95 1.43 3.95 4.97v7.45h-2.95v-7.12c0-1.6-.52-2.87-2.05-2.87-1.07 0-1.85.75-2.12 1.7-.1.27-.15.65-.15 1.02v7.27h-2.95v-8.6zM396.12 129.03v3.1h2.75v2.18h-2.75v5.67c0 1.47.45 2.12 1.47 2.12.47 0 .75-.03 1.07-.12l.08 2.28c-.45.15-1.2.27-2.1.27-1.05 0-1.92-.32-2.47-.92-.65-.68-.95-1.72-.95-3.38v-5.92h-1.65v-2.18h1.65v-2.22l2.9-.88z"/><g><path class="cls-4" d="M320.56 53.87c0-1.58-.37-3.15-1.08-4.56s-1.69-2.58-2.91-3.52-2.7-1.61-4.23-1.91c-1.84-.36-3.71-.03-5.26 1.05-1.27.88-2.22 2.22-2.47 3.75-.05.28-.07.57-.07.86 0 1.49.66 2.92 1.82 4.01-.04-.04.04-.36.06-.41.03-.14.06-.28.1-.41.08-.27.19-.53.33-.77.27-.48.63-.91 1.07-1.25.67-.52 1.5-.81 2.35-.82.69 0 1.38.15 2.03.35.54.16 1.06.36 1.56.6.96.47 1.85 1.11 2.59 1.88s1.3 1.62 1.7 2.58.59 1.92.59 2.92c0 .6-.07 1.18-.2 1.75 1.31-1.75 2.02-3.87 2.02-6.09z"/><path class="cls-5" d="M300.16 53.87c0 2.23.74 4.42 2.1 6.18s3.44 3.19 5.68 3.72c1.3.31 2.6.32 3.87-.09 1.01-.33 1.95-.87 2.71-1.62 1.03-1.02 1.67-2.4 1.67-3.85 0-1.49-.66-2.91-1.83-3.99.08.07-.11.66-.14.76-.07.25-.17.5-.29.73-.24.46-.57.87-.97 1.21-1.97 1.65-4.82.86-6.81-.33a9.12 9.12 0 0 1-2.33-2c-1.16-1.42-1.84-3.21-1.84-5.05 0-.59.07-1.18.2-1.75a10.124 10.124 0 0 0-2.02 6.09z"/></g></g></svg>